<?xml version="1.0" encoding="UTF-8"?>
<svg xmlns="http://www.w3.org/2000/svg" xmlns:xlink="http://www.w3.org/1999/xlink" width="16" height="16" viewBox="0 0 16 16" version="1.1">
<g id="surface1">
<path style=" stroke:none;fill-rule:nonzero;fill:rgb(11.372549%,17.254902%,26.274511%);fill-opacity:1;" d="M 7.652344 0.175781 C 8.046875 0.351562 8.210938 0.59375 8.441406 0.953125 C 9.007812 1.746094 9.644531 2.539062 10.640625 2.761719 C 12.011719 2.949219 13.429688 2.882812 14.808594 2.796875 C 14.90625 2.792969 15.003906 2.785156 15.101562 2.78125 C 15.1875 2.773438 15.273438 2.769531 15.363281 2.761719 C 15.429688 2.769531 15.496094 2.777344 15.566406 2.78125 C 15.761719 3.082031 15.757812 3.191406 15.75 3.539062 C 15.75 3.625 15.746094 3.710938 15.746094 3.800781 C 15.742188 3.867188 15.742188 3.933594 15.738281 4 C 15.824219 4.027344 15.910156 4.058594 16 4.085938 C 15.988281 4.34375 15.976562 4.597656 15.960938 4.851562 C 15.957031 4.925781 15.957031 5 15.953125 5.074219 C 15.945312 5.175781 15.945312 5.175781 15.941406 5.285156 C 15.9375 5.378906 15.9375 5.378906 15.929688 5.480469 C 15.914062 5.652344 15.914062 5.652344 15.824219 5.914062 C 15.816406 6.058594 15.8125 6.203125 15.8125 6.34375 C 15.8125 6.433594 15.8125 6.519531 15.808594 6.613281 C 15.808594 6.707031 15.808594 6.800781 15.808594 6.898438 C 15.804688 7.097656 15.804688 7.300781 15.800781 7.5 C 15.796875 7.816406 15.792969 8.132812 15.792969 8.449219 C 15.789062 8.753906 15.785156 9.058594 15.78125 9.363281 C 15.78125 9.457031 15.78125 9.550781 15.78125 9.648438 C 15.777344 9.738281 15.777344 9.824219 15.773438 9.914062 C 15.773438 10.03125 15.773438 10.03125 15.773438 10.148438 C 15.738281 10.347656 15.738281 10.347656 15.625 10.503906 C 15.386719 10.671875 15.152344 10.625 14.871094 10.609375 C 14.867188 10.675781 14.859375 10.742188 14.855469 10.808594 C 14.816406 11.367188 14.746094 11.890625 14.609375 12.433594 C 14.3125 12.535156 14.105469 12.507812 13.804688 12.441406 C 13.6875 12.414062 13.6875 12.414062 13.570312 12.390625 C 13.480469 12.367188 13.480469 12.367188 13.390625 12.347656 C 13.359375 12.515625 13.359375 12.515625 13.324219 12.683594 C 13.226562 13.144531 13.054688 13.566406 12.871094 14 C 12.75 13.988281 12.628906 13.980469 12.511719 13.96875 C 12.410156 13.957031 12.410156 13.957031 12.308594 13.949219 C 12.050781 13.90625 11.8125 13.828125 11.566406 13.738281 C 11.492188 13.867188 11.492188 13.867188 11.417969 14 C 11.355469 14.113281 11.292969 14.222656 11.226562 14.335938 C 11.195312 14.394531 11.164062 14.449219 11.132812 14.507812 C 11 14.738281 10.882812 14.941406 10.695312 15.128906 C 10.257812 15.097656 9.957031 14.863281 9.601562 14.625 C 9.402344 14.503906 9.402344 14.503906 9.222656 14.542969 C 9.015625 14.617188 8.925781 14.703125 8.777344 14.863281 C 8.730469 14.914062 8.683594 14.964844 8.632812 15.019531 C 8.535156 15.125 8.433594 15.234375 8.335938 15.339844 C 7.972656 15.726562 7.972656 15.726562 7.675781 15.792969 C 7.4375 15.726562 7.367188 15.660156 7.21875 15.460938 C 7 15.1875 6.773438 14.941406 6.523438 14.695312 C 6.375 14.550781 6.230469 14.40625 6.085938 14.261719 C 6.023438 14.195312 5.957031 14.128906 5.890625 14.0625 C 2.175781 10.347656 2.175781 10.347656 1.945312 10.117188 C 1.738281 9.910156 1.527344 9.707031 1.316406 9.503906 C 1.160156 9.351562 1 9.199219 0.84375 9.042969 C 0.722656 8.925781 0.722656 8.925781 0.597656 8.808594 C 0.519531 8.734375 0.445312 8.660156 0.363281 8.582031 C 0.296875 8.515625 0.226562 8.445312 0.152344 8.375 C -0.03125 8.132812 -0.0351562 8.039062 0 7.738281 C 0.117188 7.570312 0.117188 7.570312 0.28125 7.402344 C 0.34375 7.339844 0.40625 7.277344 0.472656 7.210938 C 0.542969 7.144531 0.613281 7.074219 0.683594 7.003906 C 0.757812 6.933594 0.828125 6.859375 0.902344 6.785156 C 1.101562 6.585938 1.304688 6.386719 1.503906 6.1875 C 1.714844 5.980469 1.921875 5.773438 2.132812 5.5625 C 2.480469 5.214844 2.832031 4.863281 3.183594 4.515625 C 3.683594 4.023438 4.175781 3.53125 4.671875 3.039062 C 5.015625 2.695312 5.359375 2.355469 5.699219 2.015625 C 5.785156 1.929688 5.867188 1.847656 5.949219 1.765625 C 6.222656 1.492188 6.496094 1.222656 6.773438 0.949219 C 6.839844 0.882812 6.910156 0.8125 6.980469 0.742188 C 7.078125 0.648438 7.078125 0.648438 7.171875 0.550781 C 7.226562 0.496094 7.285156 0.441406 7.339844 0.386719 C 7.476562 0.261719 7.476562 0.261719 7.652344 0.175781 Z M 7.652344 0.175781 "/>
<path style=" stroke:none;fill-rule:nonzero;fill:rgb(5.490196%,7.843138%,14.901961%);fill-opacity:1;" d="M 10.433594 2.78125 C 11.101562 2.777344 11.765625 2.773438 12.433594 2.769531 C 12.742188 2.769531 13.050781 2.765625 13.359375 2.761719 C 13.714844 2.757812 14.070312 2.757812 14.425781 2.757812 C 14.539062 2.753906 14.648438 2.753906 14.761719 2.753906 C 14.867188 2.753906 14.96875 2.753906 15.074219 2.753906 C 15.210938 2.753906 15.210938 2.753906 15.347656 2.75 C 15.421875 2.761719 15.492188 2.773438 15.566406 2.78125 C 15.761719 3.082031 15.757812 3.191406 15.75 3.539062 C 15.75 3.625 15.746094 3.710938 15.746094 3.800781 C 15.742188 3.867188 15.742188 3.933594 15.738281 4 C 15.824219 4.027344 15.910156 4.058594 16 4.085938 C 15.988281 4.332031 15.980469 4.578125 15.96875 4.824219 C 15.964844 4.929688 15.964844 4.929688 15.960938 5.035156 C 15.9375 5.492188 15.863281 5.90625 15.738281 6.347656 C 15.675781 6.3125 15.613281 6.273438 15.546875 6.234375 C 15.011719 5.921875 14.472656 5.609375 13.9375 5.296875 C 13.761719 5.195312 13.582031 5.089844 13.40625 4.988281 C 12.996094 4.746094 12.585938 4.507812 12.167969 4.273438 C 10.847656 3.527344 10.847656 3.527344 10.433594 2.957031 C 10.433594 2.898438 10.433594 2.839844 10.433594 2.78125 Z M 10.433594 2.78125 "/>
<path style=" stroke:none;fill-rule:nonzero;fill:rgb(95.686275%,96.078432%,96.470588%);fill-opacity:1;" d="M 7.566406 5.304688 C 7.878906 5.410156 7.90625 5.480469 8.058594 5.761719 C 8.117188 5.859375 8.117188 5.859375 8.175781 5.964844 C 8.269531 6.195312 8.277344 6.363281 8.261719 6.609375 C 8.355469 6.550781 8.449219 6.492188 8.550781 6.433594 C 8.777344 6.296875 8.855469 6.261719 9.128906 6.261719 C 9.136719 6.425781 9.140625 6.589844 9.148438 6.753906 C 9.152344 6.894531 9.152344 6.894531 9.15625 7.035156 C 9.125 7.34375 9.058594 7.492188 8.871094 7.738281 C 8.703125 7.871094 8.703125 7.871094 8.527344 7.972656 C 8.46875 8.007812 8.410156 8.042969 8.351562 8.078125 C 8.292969 8.109375 8.234375 8.140625 8.175781 8.175781 C 8.113281 8.207031 8.054688 8.238281 7.996094 8.273438 C 7.710938 8.398438 7.511719 8.335938 7.21875 8.261719 C 6.832031 8.070312 6.476562 7.859375 6.261719 7.476562 C 6.167969 7.203125 6.164062 7.007812 6.167969 6.722656 C 6.167969 6.636719 6.171875 6.550781 6.171875 6.460938 C 6.171875 6.394531 6.171875 6.328125 6.175781 6.261719 C 6.492188 6.332031 6.753906 6.457031 7.042969 6.609375 C 7.050781 6.480469 7.050781 6.480469 7.058594 6.347656 C 7.113281 5.9375 7.332031 5.636719 7.566406 5.304688 Z M 7.566406 5.304688 "/>
<path style=" stroke:none;fill-rule:nonzero;fill:rgb(5.882353%,8.235294%,15.294118%);fill-opacity:1;" d="M 15.652344 6.433594 C 15.679688 6.433594 15.710938 6.433594 15.738281 6.433594 C 15.746094 6.988281 15.75 7.539062 15.753906 8.09375 C 15.753906 8.28125 15.757812 8.46875 15.757812 8.65625 C 15.761719 8.925781 15.761719 9.195312 15.765625 9.464844 C 15.765625 9.550781 15.765625 9.636719 15.769531 9.722656 C 15.769531 9.800781 15.769531 9.878906 15.769531 9.960938 C 15.769531 10.027344 15.769531 10.097656 15.769531 10.167969 C 15.730469 10.398438 15.664062 10.472656 15.476562 10.609375 C 15.15625 10.625 15.15625 10.625 14.871094 10.609375 C 14.867188 10.675781 14.859375 10.742188 14.855469 10.808594 C 14.816406 11.367188 14.746094 11.890625 14.609375 12.433594 C 14.3125 12.535156 14.105469 12.507812 13.804688 12.441406 C 13.726562 12.421875 13.648438 12.40625 13.570312 12.390625 C 13.480469 12.367188 13.480469 12.367188 13.390625 12.347656 C 13.449219 12.027344 13.535156 11.730469 13.644531 11.425781 C 13.679688 11.332031 13.710938 11.238281 13.746094 11.144531 C 13.78125 11.046875 13.816406 10.953125 13.851562 10.851562 C 13.902344 10.710938 13.902344 10.710938 13.957031 10.566406 C 14.054688 10.289062 14.160156 10.015625 14.261719 9.738281 C 14.292969 9.65625 14.320312 9.574219 14.351562 9.488281 C 14.613281 8.792969 14.613281 8.792969 14.929688 8.523438 C 15.359375 8.140625 15.347656 7.753906 15.40625 7.203125 C 15.441406 6.886719 15.472656 6.707031 15.652344 6.433594 Z M 15.652344 6.433594 "/>
<path style=" stroke:none;fill-rule:nonzero;fill:rgb(13.725491%,18.431373%,37.254903%);fill-opacity:1;" d="M 13.566406 9.824219 C 13.609375 9.914062 13.609375 9.914062 13.652344 10 C 13.539062 10.21875 13.417969 10.425781 13.289062 10.636719 C 13.207031 10.769531 13.125 10.90625 13.046875 11.039062 C 13.003906 11.109375 12.960938 11.183594 12.914062 11.253906 C 12.691406 11.632812 12.46875 12.015625 12.25 12.398438 C 12.207031 12.472656 12.160156 12.550781 12.117188 12.628906 C 11.8125 13.160156 11.53125 13.703125 11.269531 14.253906 C 11.113281 14.582031 10.933594 14.855469 10.695312 15.128906 C 10.3125 15.078125 10.042969 14.933594 9.710938 14.734375 C 9.574219 14.648438 9.574219 14.648438 9.429688 14.566406 C 9.359375 14.523438 9.289062 14.480469 9.21875 14.433594 C 9.253906 14.046875 9.523438 13.835938 9.789062 13.582031 C 9.832031 13.539062 9.875 13.496094 9.921875 13.449219 C 10.15625 13.21875 10.402344 12.996094 10.65625 12.78125 C 11.15625 12.34375 11.621094 11.871094 12.089844 11.398438 C 12.25 11.238281 12.414062 11.078125 12.574219 10.914062 C 12.679688 10.8125 12.78125 10.707031 12.886719 10.605469 C 12.933594 10.554688 12.980469 10.507812 13.03125 10.457031 C 13.234375 10.253906 13.40625 10.066406 13.566406 9.824219 Z M 13.566406 9.824219 "/>
<path style=" stroke:none;fill-rule:nonzero;fill:rgb(95.294118%,95.686275%,96.078432%);fill-opacity:1;" d="M 6.175781 10.347656 C 6.503906 10.464844 6.769531 10.617188 7.054688 10.820312 C 7.128906 10.871094 7.203125 10.925781 7.277344 10.976562 C 7.445312 11.105469 7.59375 11.234375 7.738281 11.390625 C 7.769531 11.316406 7.769531 11.316406 7.800781 11.238281 C 7.941406 10.992188 8.105469 10.882812 8.335938 10.722656 C 8.410156 10.671875 8.488281 10.617188 8.566406 10.5625 C 8.761719 10.449219 8.90625 10.386719 9.128906 10.347656 C 9.21875 11.453125 9.21875 11.453125 8.914062 11.832031 C 8.617188 12.113281 8.285156 12.273438 7.914062 12.433594 C 7.882812 12.921875 7.855469 13.410156 7.824219 13.914062 C 7.683594 13.914062 7.539062 13.914062 7.390625 13.914062 C 7.390625 13.398438 7.390625 12.878906 7.390625 12.347656 C 7.246094 12.320312 7.105469 12.289062 6.957031 12.261719 C 6.5625 12.078125 6.359375 11.875 6.175781 11.476562 C 6.144531 11.097656 6.152344 10.726562 6.175781 10.347656 Z M 6.175781 10.347656 "/>
<path style=" stroke:none;fill-rule:nonzero;fill:rgb(8.235294%,11.764706%,23.137255%);fill-opacity:1;" d="M 14.433594 9.042969 C 14.523438 9.21875 14.523438 9.21875 14.484375 9.378906 C 14.460938 9.445312 14.4375 9.507812 14.414062 9.574219 C 14.386719 9.648438 14.359375 9.71875 14.335938 9.792969 C 14.308594 9.871094 14.277344 9.949219 14.25 10.027344 C 14.222656 10.105469 14.195312 10.183594 14.164062 10.265625 C 14.007812 10.703125 13.84375 11.132812 13.675781 11.566406 C 13.503906 11.996094 13.386719 12.429688 13.285156 12.878906 C 13.179688 13.269531 13.03125 13.632812 12.871094 14 C 12.378906 13.96875 12 13.910156 11.566406 13.652344 C 11.703125 13.144531 11.960938 12.71875 12.222656 12.265625 C 12.269531 12.1875 12.316406 12.105469 12.363281 12.023438 C 12.460938 11.859375 12.554688 11.695312 12.648438 11.53125 C 12.765625 11.332031 12.882812 11.128906 12.996094 10.925781 C 13.402344 10.222656 13.859375 9.621094 14.433594 9.042969 Z M 14.433594 9.042969 "/>
<path style=" stroke:none;fill-rule:nonzero;fill:rgb(0%,0%,0%);fill-opacity:1;" d="M 10.433594 2.78125 C 11.101562 2.777344 11.765625 2.773438 12.433594 2.769531 C 12.742188 2.769531 13.050781 2.765625 13.359375 2.761719 C 13.714844 2.757812 14.070312 2.757812 14.425781 2.757812 C 14.539062 2.753906 14.648438 2.753906 14.761719 2.753906 C 14.867188 2.753906 14.96875 2.753906 15.074219 2.753906 C 15.210938 2.753906 15.210938 2.753906 15.347656 2.75 C 15.421875 2.761719 15.492188 2.773438 15.566406 2.78125 C 15.761719 3.082031 15.757812 3.191406 15.75 3.539062 C 15.75 3.625 15.746094 3.710938 15.746094 3.800781 C 15.742188 3.867188 15.742188 3.933594 15.738281 4 C 14.917969 3.957031 14.128906 3.839844 13.324219 3.6875 C 13.066406 3.640625 12.808594 3.59375 12.546875 3.550781 C 12.363281 3.515625 12.175781 3.484375 11.992188 3.449219 C 11.78125 3.414062 11.566406 3.378906 11.355469 3.34375 C 11.226562 3.324219 11.226562 3.324219 11.097656 3.304688 C 11.027344 3.292969 10.953125 3.28125 10.878906 3.273438 C 10.664062 3.207031 10.570312 3.132812 10.433594 2.957031 C 10.433594 2.898438 10.433594 2.839844 10.433594 2.78125 Z M 10.433594 2.78125 "/>
<path style=" stroke:none;fill-rule:nonzero;fill:rgb(95.686275%,96.078432%,96.470588%);fill-opacity:1;" d="M 9.128906 8.261719 C 9.183594 9.257812 9.183594 9.257812 9.011719 9.695312 C 8.605469 10.082031 8.152344 10.3125 7.597656 10.398438 C 7.09375 10.3125 6.6875 10.128906 6.347656 9.738281 C 6.074219 9.320312 6.136719 8.828125 6.175781 8.347656 C 6.539062 8.394531 6.765625 8.519531 7.066406 8.734375 C 7.140625 8.789062 7.214844 8.839844 7.292969 8.894531 C 7.476562 9.042969 7.476562 9.042969 7.566406 9.21875 C 7.621094 9.21875 7.679688 9.21875 7.738281 9.21875 C 7.835938 9.117188 7.933594 9.015625 8.03125 8.914062 C 8.738281 8.261719 8.738281 8.261719 9.128906 8.261719 Z M 9.128906 8.261719 "/>
<path style=" stroke:none;fill-rule:nonzero;fill:rgb(7.843138%,11.372549%,22.745098%);fill-opacity:1;" d="M 11.042969 3.476562 C 11.648438 3.675781 12.246094 3.886719 12.84375 4.101562 C 12.984375 4.152344 12.984375 4.152344 13.125 4.207031 C 14.054688 4.542969 14.984375 4.878906 15.914062 5.21875 C 15.867188 5.597656 15.816406 5.972656 15.738281 6.347656 C 15.675781 6.3125 15.613281 6.273438 15.546875 6.234375 C 15.011719 5.921875 14.472656 5.609375 13.9375 5.296875 C 13.667969 5.140625 13.402344 4.984375 13.132812 4.828125 C 12.804688 4.636719 12.476562 4.445312 12.148438 4.253906 C 12.011719 4.179688 11.878906 4.101562 11.746094 4.023438 C 11.683594 3.988281 11.621094 3.949219 11.558594 3.914062 C 11.140625 3.671875 11.140625 3.671875 11.042969 3.476562 Z M 11.042969 3.476562 "/>
<path style=" stroke:none;fill-rule:nonzero;fill:rgb(0%,0%,0.392157%);fill-opacity:1;" d="M 15.652344 6.433594 C 15.679688 6.433594 15.710938 6.433594 15.738281 6.433594 C 15.746094 6.988281 15.75 7.539062 15.753906 8.09375 C 15.753906 8.28125 15.757812 8.46875 15.757812 8.65625 C 15.761719 8.925781 15.761719 9.195312 15.765625 9.464844 C 15.765625 9.550781 15.765625 9.636719 15.769531 9.722656 C 15.769531 9.839844 15.769531 9.839844 15.769531 9.960938 C 15.769531 10.027344 15.769531 10.097656 15.769531 10.167969 C 15.730469 10.394531 15.664062 10.472656 15.476562 10.609375 C 15.199219 10.625 15.199219 10.625 14.957031 10.609375 C 14.875 10.285156 14.871094 10.046875 14.933594 9.71875 C 14.949219 9.636719 14.964844 9.550781 14.980469 9.464844 C 15 9.378906 15.015625 9.289062 15.03125 9.199219 C 15.050781 9.113281 15.066406 9.027344 15.082031 8.933594 C 15.203125 8.289062 15.203125 8.289062 15.304688 8.085938 C 15.34375 7.792969 15.375 7.5 15.40625 7.203125 C 15.441406 6.886719 15.472656 6.707031 15.652344 6.433594 Z M 15.652344 6.433594 "/>
<path style=" stroke:none;fill-rule:nonzero;fill:rgb(86.274511%,87.450981%,89.019608%);fill-opacity:1;" d="M 8.609375 3.390625 C 8.78125 3.390625 8.953125 3.390625 9.128906 3.390625 C 9.128906 4.109375 9.128906 4.824219 9.128906 5.566406 C 8.988281 5.59375 8.84375 5.621094 8.695312 5.652344 C 8.609375 5.566406 8.609375 5.566406 8.597656 5.355469 C 8.597656 5.265625 8.601562 5.175781 8.601562 5.082031 C 8.601562 4.984375 8.601562 4.886719 8.601562 4.785156 C 8.601562 4.683594 8.601562 4.578125 8.601562 4.472656 C 8.605469 4.371094 8.605469 4.265625 8.605469 4.160156 C 8.605469 3.902344 8.605469 3.648438 8.609375 3.390625 Z M 8.609375 3.390625 "/>
<path style=" stroke:none;fill-rule:nonzero;fill:rgb(93.725491%,94.117647%,94.509804%);fill-opacity:1;" d="M 6.175781 3.390625 C 6.316406 3.390625 6.460938 3.390625 6.609375 3.390625 C 6.609375 4.136719 6.609375 4.882812 6.609375 5.652344 C 6.464844 5.625 6.320312 5.59375 6.175781 5.566406 C 6.175781 4.847656 6.175781 4.128906 6.175781 3.390625 Z M 6.175781 3.390625 "/>
<path style=" stroke:none;fill-rule:nonzero;fill:rgb(93.333334%,93.725491%,94.117647%);fill-opacity:1;" d="M 7.476562 2.433594 C 7.59375 2.433594 7.707031 2.433594 7.824219 2.433594 C 7.824219 3.179688 7.824219 3.925781 7.824219 4.695312 C 7.683594 4.695312 7.539062 4.695312 7.390625 4.695312 C 7.390625 4.335938 7.386719 3.976562 7.386719 3.613281 C 7.386719 3.511719 7.382812 3.410156 7.382812 3.300781 C 7.382812 3.203125 7.382812 3.105469 7.382812 3.003906 C 7.382812 2.914062 7.382812 2.824219 7.382812 2.730469 C 7.390625 2.523438 7.390625 2.523438 7.476562 2.433594 Z M 7.476562 2.433594 "/>
<path style=" stroke:none;fill-rule:nonzero;fill:rgb(5.490196%,7.843138%,14.901961%);fill-opacity:1;" d="M 15.390625 6.871094 C 15.511719 7.203125 15.449219 7.484375 15.390625 7.824219 C 15.304688 7.769531 15.21875 7.710938 15.128906 7.652344 C 15.171875 7.328125 15.207031 7.148438 15.390625 6.871094 Z M 15.390625 6.871094 "/>
</g>
</svg>
